<mxfile host="app.diagrams.net" modified="2022-10-17T13:02:18.164Z" agent="5.0 (Macintosh; Intel Mac OS X 10_15_7) AppleWebKit/537.36 (KHTML, like Gecko) Chrome/106.0.0.0 Safari/537.36" etag="bjNNjlJ8qYHmV0eOwTVA" version="20.4.1" type="github">
  <diagram id="byuaiJW0-Hg5qVhSLs57" name="Page-1">
    <mxGraphModel dx="1018" dy="659" grid="1" gridSize="10" guides="1" tooltips="1" connect="1" arrows="1" fold="1" page="1" pageScale="1" pageWidth="827" pageHeight="1169" math="0" shadow="0">
      <root>
        <mxCell id="0" />
        <mxCell id="1" parent="0" />
        <mxCell id="QgJFwyaaA1O7rHjHdizO-1" value="" style="ellipse;whiteSpace=wrap;html=1;aspect=fixed;" vertex="1" parent="1">
          <mxGeometry x="290" y="100" width="260" height="260" as="geometry" />
        </mxCell>
        <mxCell id="QgJFwyaaA1O7rHjHdizO-2" value="aggr" style="rounded=0;whiteSpace=wrap;html=1;" vertex="1" parent="1">
          <mxGeometry x="370" y="150" width="120" height="60" as="geometry" />
        </mxCell>
        <mxCell id="QgJFwyaaA1O7rHjHdizO-3" value="username static&lt;br&gt;password static&lt;br&gt;userId&lt;br&gt;RId -&amp;gt; reseller&lt;br&gt;IP&lt;br&gt;---------------------------------------&lt;br&gt;Login" style="rounded=0;whiteSpace=wrap;html=1;" vertex="1" parent="1">
          <mxGeometry x="70" y="280" width="210" height="240" as="geometry" />
        </mxCell>
        <mxCell id="QgJFwyaaA1O7rHjHdizO-4" value="" style="curved=1;endArrow=classic;html=1;rounded=0;exitX=1;exitY=0.5;exitDx=0;exitDy=0;" edge="1" parent="1" source="QgJFwyaaA1O7rHjHdizO-3" target="QgJFwyaaA1O7rHjHdizO-2">
          <mxGeometry width="50" height="50" relative="1" as="geometry">
            <mxPoint x="180" y="270" as="sourcePoint" />
            <mxPoint x="440" y="270" as="targetPoint" />
            <Array as="points">
              <mxPoint x="440" y="320" />
              <mxPoint x="390" y="270" />
            </Array>
          </mxGeometry>
        </mxCell>
        <mxCell id="QgJFwyaaA1O7rHjHdizO-5" value="On Login -&amp;gt; If new -&amp;gt; Save&lt;br&gt;&lt;br&gt;age chizi peyda nashod toye database ye record jadid mizanim va toke ro be karbar midim" style="rounded=0;whiteSpace=wrap;html=1;" vertex="1" parent="1">
          <mxGeometry x="590" y="430" width="300" height="80" as="geometry" />
        </mxCell>
        <mxCell id="QgJFwyaaA1O7rHjHdizO-6" value="On Login -&amp;gt; if old -&amp;gt; generate&lt;br&gt;&lt;br&gt;&lt;br&gt;age toke exxpire nashode bod hamon token ro bar migardonim, tarikhesh ham update mikonim&lt;br&gt;&lt;br&gt;" style="rounded=0;whiteSpace=wrap;html=1;" vertex="1" parent="1">
          <mxGeometry x="590" y="320" width="300" height="90" as="geometry" />
        </mxCell>
        <mxCell id="QgJFwyaaA1O7rHjHdizO-7" value="" style="shape=process;whiteSpace=wrap;html=1;backgroundOutline=1;" vertex="1" parent="1">
          <mxGeometry x="260" y="620" width="300" height="170" as="geometry" />
        </mxCell>
        <mxCell id="QgJFwyaaA1O7rHjHdizO-8" value="DTO" style="rounded=0;whiteSpace=wrap;html=1;" vertex="1" parent="1">
          <mxGeometry x="350" y="525" width="120" height="60" as="geometry" />
        </mxCell>
        <mxCell id="QgJFwyaaA1O7rHjHdizO-9" value="" style="curved=1;endArrow=classic;html=1;rounded=0;entryX=0.5;entryY=0;entryDx=0;entryDy=0;exitX=0.408;exitY=1.075;exitDx=0;exitDy=0;exitPerimeter=0;" edge="1" parent="1" source="QgJFwyaaA1O7rHjHdizO-8" target="QgJFwyaaA1O7rHjHdizO-7">
          <mxGeometry width="50" height="50" relative="1" as="geometry">
            <mxPoint x="390" y="530" as="sourcePoint" />
            <mxPoint x="440" y="480" as="targetPoint" />
            <Array as="points">
              <mxPoint x="440" y="530" />
              <mxPoint x="390" y="480" />
            </Array>
          </mxGeometry>
        </mxCell>
        <mxCell id="QgJFwyaaA1O7rHjHdizO-10" value="DTO" style="rounded=0;whiteSpace=wrap;html=1;" vertex="1" parent="1">
          <mxGeometry x="50" y="555" width="120" height="60" as="geometry" />
        </mxCell>
        <mxCell id="QgJFwyaaA1O7rHjHdizO-11" value="expire_at&lt;br&gt;toke&lt;br&gt;&lt;br&gt;token&lt;br&gt;&lt;br&gt;r_id&lt;br&gt;&lt;br&gt;ip&lt;br&gt;&lt;br&gt;user_id" style="rounded=0;whiteSpace=wrap;html=1;" vertex="1" parent="1">
          <mxGeometry x="630" y="60" width="200" height="200" as="geometry" />
        </mxCell>
      </root>
    </mxGraphModel>
  </diagram>
</mxfile>
